# Blender 3.5.1
# www.blender.org
mtllib map3.mtl
o íë¸Œ.001
v 10.000000 10.000000 -0.500000
v 10.000000 10.000000 0.500000
v 10.000000 -10.000000 -0.500000
v 10.000000 -10.000000 0.500000
v -10.000000 10.000000 -0.500000
v -10.000000 10.000000 0.500000
v -10.000000 -10.000000 -0.500000
v -10.000000 -10.000000 0.500000
v 1.395820 -1.852788 -0.500000
v 0.395800 -0.853500 -0.500000
v -1.102483 0.013816 -0.500000
v -2.464571 -0.349347 -0.500000
v -1.464571 1.382704 -0.500000
v -1.598545 -0.849347 -0.500000
v -0.604180 -1.852788 -0.500000
v 1.755709 0.507697 -0.500000
v 1.395820 -0.852788 -0.500000
v -0.110316 1.739748 -0.500000
v 0.755709 2.239748 -0.500000
v 0.389927 0.873439 -0.500000
v 1.755709 0.507697 0.500000
v 1.395820 -0.852788 0.500000
v 1.395820 -1.852788 0.500000
v -0.604180 -1.852788 0.500000
v 0.395800 -0.853500 0.500000
v 0.755709 2.239748 0.500000
v -0.110316 1.739748 0.500000
v 0.390415 0.872873 0.500000
v -1.102483 0.013815 0.500000
v -2.464571 -0.349347 0.500000
v -1.598545 -0.849347 0.500000
v -1.464571 1.382704 0.500000
v 0.628631 -0.447506 -0.500000
v 1.344127 0.270070 -0.500000
v 0.650514 -0.410983 -0.500000
v 0.675064 -0.373067 -0.500000
v 0.702129 -0.333992 -0.500000
v 0.731543 -0.293999 -0.500000
v 0.763124 -0.253336 -0.500000
v 0.796678 -0.212252 -0.500000
v 0.831997 -0.171000 -0.500000
v 0.868865 -0.129836 -0.500000
v 0.907053 -0.089013 -0.500000
v 0.946326 -0.048782 -0.500000
v 0.986443 -0.009392 -0.500000
v 1.027155 0.028915 -0.500000
v 1.068212 0.065902 -0.500000
v 1.109361 0.101341 -0.500000
v 1.150347 0.135014 -0.500000
v 1.190919 0.166713 -0.500000
v 1.230826 0.196243 -0.500000
v 1.269822 0.223421 -0.500000
v 1.307667 0.248081 -0.500000
v 1.344127 0.270070 0.500000
v 0.628631 -0.447506 0.500000
v 1.307667 0.248081 0.500000
v 1.269822 0.223421 0.500000
v 1.230826 0.196243 0.500000
v 1.190919 0.166713 0.500000
v 1.150347 0.135014 0.500000
v 1.109361 0.101341 0.500000
v 1.068212 0.065902 0.500000
v 1.027155 0.028915 0.500000
v 0.986443 -0.009392 0.500000
v 0.946326 -0.048782 0.500000
v 0.907053 -0.089013 0.500000
v 0.868865 -0.129836 0.500000
v 0.831997 -0.171000 0.500000
v 0.796678 -0.212252 0.500000
v 0.763124 -0.253336 0.500000
v 0.731543 -0.294000 0.500000
v 0.702129 -0.333992 0.500000
v 0.675064 -0.373067 0.500000
v 0.650514 -0.410983 0.500000
v -0.885145 -0.364326 -0.500000
v -0.604133 -1.417408 -0.500000
v -0.863092 -0.404434 -0.500000
v -0.841176 -0.447772 -0.500000
v -0.819531 -0.494073 -0.500000
v -0.798292 -0.543052 -0.500000
v -0.777588 -0.594406 -0.500000
v -0.757547 -0.647820 -0.500000
v -0.738294 -0.702963 -0.500000
v -0.719946 -0.759496 -0.500000
v -0.702617 -0.817070 -0.500000
v -0.686414 -0.875330 -0.500000
v -0.671437 -0.933918 -0.500000
v -0.657778 -0.992471 -0.500000
v -0.645520 -1.050629 -0.500000
v -0.634741 -1.108033 -0.500000
v -0.625505 -1.164330 -0.500000
v -0.617871 -1.219172 -0.500000
v -0.611885 -1.272221 -0.500000
v -0.607584 -1.323150 -0.500000
v -0.604995 -1.371646 -0.500000
v -0.604133 -1.417408 0.500000
v -0.885145 -0.364326 0.500000
v -0.604995 -1.371646 0.500000
v -0.607584 -1.323150 0.500000
v -0.611885 -1.272221 0.500000
v -0.617871 -1.219172 0.500000
v -0.625505 -1.164330 0.500000
v -0.634741 -1.108033 0.500000
v -0.645520 -1.050629 0.500000
v -0.657778 -0.992471 0.500000
v -0.671437 -0.933918 0.500000
v -0.686414 -0.875330 0.500000
v -0.702617 -0.817070 0.500000
v -0.719946 -0.759496 0.500000
v -0.738294 -0.702963 0.500000
v -0.757547 -0.647820 0.500000
v -0.777588 -0.594406 0.500000
v -0.798292 -0.543052 0.500000
v -0.819531 -0.494073 0.500000
v -0.841176 -0.447772 0.500000
v -0.863092 -0.404434 0.500000
v -0.049241 0.876522 -0.500000
v -1.082193 1.159662 -0.500000
v -0.094200 0.877688 -0.500000
v -0.141833 0.880569 -0.500000
v -0.191847 0.885146 -0.500000
v -0.243934 0.891392 -0.500000
v -0.297772 0.899268 -0.500000
v -0.353028 0.908725 -0.500000
v -0.409364 0.919705 -0.500000
v -0.466431 0.932141 -0.500000
v -0.523877 0.945956 -0.500000
v -0.581349 0.961064 -0.500000
v -0.638492 0.977372 -0.500000
v -0.694953 0.994781 -0.500000
v -0.750385 1.013182 -0.500000
v -0.804445 1.032462 -0.500000
v -0.856801 1.052502 -0.500000
v -0.907130 1.073179 -0.500000
v -0.955121 1.094365 -0.500000
v -1.000479 1.115930 -0.500000
v -1.042924 1.137740 -0.500000
v -1.082193 1.159662 0.500000
v -0.049243 0.876209 0.500000
v -1.042924 1.137740 0.500000
v -1.000479 1.115926 0.500000
v -0.955121 1.094357 0.500000
v -0.907130 1.073164 0.500000
v -0.856802 1.052478 0.500000
v -0.804446 1.032428 0.500000
v -0.750385 1.013136 0.500000
v -0.694953 0.994721 0.500000
v -0.638492 0.977297 0.500000
v -0.581350 0.960972 0.500000
v -0.523878 0.945846 0.500000
v -0.466432 0.932012 0.500000
v -0.409365 0.919556 0.500000
v -0.353030 0.908554 0.500000
v -0.297773 0.899074 0.500000
v -0.243935 0.891175 0.500000
v -0.191849 0.884906 0.500000
v -0.141835 0.880305 0.500000
v -0.094202 0.877399 0.500000
vn 1.0000 -0.0000 -0.0000
vn -0.0000 -1.0000 -0.0000
vn -1.0000 -0.0000 -0.0000
vn -0.0000 1.0000 -0.0000
vn 1.0000 -0.0001 -0.0000
vn -0.0000 -0.0000 1.0000
vn 0.0007 -1.0000 -0.0000
vn 0.5000 -0.8660 -0.0000
vn 0.8660 0.5001 -0.0001
vn -0.0000 -0.0000 -1.0000
vn -0.0073 -1.0000 -0.0004
vn -0.8670 0.4983 -0.0000
vn 0.5000 0.8660 -0.0000
vn -0.5039 -0.8638 -0.0000
vn -0.5000 0.8660 -0.0000
vn 0.8660 -0.5000 -0.0000
vn -0.8660 -0.5000 -0.0000
vn -0.8578 0.5140 -0.0000
vn -0.8394 0.5435 -0.0000
vn -0.8221 0.5694 -0.0000
vn -0.8056 0.5925 -0.0000
vn -0.7898 0.6134 -0.0000
vn -0.7745 0.6326 -0.0000
vn -0.7596 0.6504 -0.0000
vn -0.7449 0.6672 -0.0000
vn -0.7303 0.6831 -0.0000
vn -0.7156 0.6985 -0.0000
vn -0.7006 0.7135 -0.0000
vn -0.6853 0.7283 -0.0000
vn -0.6693 0.7430 -0.0000
vn -0.6526 0.7577 -0.0000
vn -0.6348 0.7727 -0.0000
vn -0.6157 0.7880 -0.0000
vn -0.5948 0.8039 -0.0000
vn -0.5718 0.8204 -0.0000
vn -0.5459 0.8378 -0.0000
vn -0.5164 0.8563 -0.0000
vn -0.8675 0.4975 -0.0000
vn 0.8763 0.4818 -0.0000
vn 0.8924 0.4513 -0.0000
vn 0.9059 0.4235 -0.0000
vn 0.9174 0.3979 -0.0000
vn 0.9275 0.3739 -0.0000
vn 0.9363 0.3513 -0.0000
vn 0.9441 0.3296 -0.0000
vn 0.9512 0.3087 -0.0000
vn 0.9576 0.2882 -0.0000
vn 0.9634 0.2679 -0.0000
vn 0.9688 0.2477 -0.0000
vn 0.9739 0.2272 -0.0000
vn 0.9785 0.2062 -0.0000
vn 0.9828 0.1846 -0.0000
vn 0.9868 0.1619 -0.0000
vn 0.9904 0.1379 -0.0000
vn 0.9937 0.1121 -0.0000
vn 0.9965 0.0841 -0.0000
vn 0.9986 0.0533 -0.0000
vn 0.9998 0.0188 -0.0000
vn 0.8670 0.4983 -0.0000
vn -0.0262 -0.9997 -0.0003
vn -0.0606 -0.9982 -0.0003
vn -0.0914 -0.9958 -0.0003
vn -0.1193 -0.9929 -0.0002
vn -0.1450 -0.9894 -0.0002
vn -0.1689 -0.9856 -0.0002
vn -0.1915 -0.9815 -0.0002
vn -0.2131 -0.9770 -0.0001
vn -0.2340 -0.9722 -0.0001
vn -0.2544 -0.9671 -0.0001
vn -0.2746 -0.9616 -0.0001
vn -0.2948 -0.9556 -0.0001
vn -0.3152 -0.9490 -0.0001
vn -0.3360 -0.9419 -0.0000
vn -0.3576 -0.9339 -0.0000
vn -0.3801 -0.9250 -0.0000
vn -0.4039 -0.9148 -0.0000
vn -0.4294 -0.9031 -0.0000
vn -0.4571 -0.8894 -0.0000
vn -0.4874 -0.8732 -0.0000
vt 0.375000 0.000000
vt 0.375000 1.000000
vt 0.125000 0.750000
vt 0.625000 0.000000
vt 0.625000 1.000000
vt 0.875000 0.750000
vt 0.375000 0.250000
vt 0.125000 0.500000
vt 0.625000 0.250000
vt 0.875000 0.500000
vt 0.375000 0.750000
vt 0.625000 0.750000
vt 0.375000 0.500000
vt 0.625000 0.500000
vt 0.000000 0.000000
vt 0.232552 0.601840
vt 0.245052 0.614331
vt 0.000000 0.000000
vt 0.000000 0.000000
vt 0.263781 0.625173
vt 0.000000 0.000000
vt 0.280807 0.620633
vt 0.000000 0.000000
vt 0.268307 0.642284
vt 0.000000 0.000000
vt 0.269982 0.614383
vt 0.000000 0.000000
vt 0.257552 0.601840
vt 0.228054 0.631346
vt 0.000000 0.000000
vt 0.000000 0.000000
vt 0.232552 0.614340
vt 0.000000 0.000000
vt 0.251379 0.646747
vt 0.000000 0.000000
vt 0.240554 0.652997
vt 0.000000 0.000000
vt 0.245126 0.635918
vt 0.771946 0.631346
vt 0.000000 0.000000
vt 0.767448 0.614340
vt 0.000000 0.000000
vt 0.767448 0.601840
vt 0.000000 0.000000
vt 0.742448 0.601840
vt 0.000000 0.000000
vt 0.754948 0.614331
vt 0.000000 0.000000
vt 0.759446 0.652997
vt 0.000000 0.000000
vt 0.000000 0.000000
vt 0.748621 0.646747
vt 0.000000 0.000000
vt 0.754880 0.635911
vt 0.736219 0.625173
vt 0.000000 0.000000
vt 0.719193 0.620633
vt 0.000000 0.000000
vt 0.000000 0.000000
vt 0.730018 0.614383
vt 0.731693 0.642284
vt 0.000000 0.000000
vt 0.242142 0.619406
vt 0.000000 0.000000
vt 0.233198 0.628376
vt 0.000000 0.000000
vt 0.241869 0.619863
vt 0.000000 0.000000
vt 0.241562 0.620337
vt 0.000000 0.000000
vt 0.241223 0.620825
vt 0.000000 0.000000
vt 0.240856 0.621325
vt 0.000000 0.000000
vt 0.240461 0.621833
vt 0.000000 0.000000
vt 0.240042 0.622347
vt 0.000000 0.000000
vt 0.239600 0.622862
vt 0.000000 0.000000
vt 0.239139 0.623377
vt 0.000000 0.000000
vt 0.238662 0.623887
vt 0.000000 0.000000
vt 0.238171 0.624390
vt 0.000000 0.000000
vt 0.237669 0.624883
vt 0.000000 0.000000
vt 0.237161 0.625361
vt 0.000000 0.000000
vt 0.236647 0.625824
vt 0.000000 0.000000
vt 0.236133 0.626267
vt 0.000000 0.000000
vt 0.235621 0.626688
vt 0.000000 0.000000
vt 0.235113 0.627084
vt 0.000000 0.000000
vt 0.234615 0.627453
vt 0.000000 0.000000
vt 0.234127 0.627793
vt 0.000000 0.000000
vt 0.233654 0.628101
vt 0.000000 0.000000
vt 0.766802 0.628376
vt 0.000000 0.000000
vt 0.757858 0.619406
vt 0.000000 0.000000
vt 0.766346 0.628101
vt 0.000000 0.000000
vt 0.765873 0.627793
vt 0.000000 0.000000
vt 0.765385 0.627453
vt 0.000000 0.000000
vt 0.764886 0.627084
vt 0.000000 0.000000
vt 0.764379 0.626688
vt 0.000000 0.000000
vt 0.763867 0.626267
vt 0.000000 0.000000
vt 0.763353 0.625824
vt 0.000000 0.000000
vt 0.762839 0.625361
vt 0.000000 0.000000
vt 0.762331 0.624883
vt 0.000000 0.000000
vt 0.761829 0.624390
vt 0.000000 0.000000
vt 0.761338 0.623887
vt 0.000000 0.000000
vt 0.760861 0.623377
vt 0.000000 0.000000
vt 0.760400 0.622862
vt 0.000000 0.000000
vt 0.759959 0.622347
vt 0.000000 0.000000
vt 0.759539 0.621833
vt 0.000000 0.000000
vt 0.759144 0.621325
vt 0.000000 0.000000
vt 0.758777 0.620825
vt 0.000000 0.000000
vt 0.758438 0.620337
vt 0.000000 0.000000
vt 0.758132 0.619863
vt 0.000000 0.000000
vt 0.000000 0.000000
vt 0.261064 0.620446
vt 0.000000 0.000000
vt 0.257552 0.607282
vt 0.000000 0.000000
vt 0.260789 0.619945
vt 0.000000 0.000000
vt 0.260515 0.619403
vt 0.000000 0.000000
vt 0.260244 0.618824
vt 0.000000 0.000000
vt 0.259979 0.618212
vt 0.000000 0.000000
vt 0.259720 0.617570
vt 0.000000 0.000000
vt 0.259469 0.616902
vt 0.000000 0.000000
vt 0.259229 0.616213
vt 0.000000 0.000000
vt 0.258999 0.615506
vt 0.000000 0.000000
vt 0.258783 0.614787
vt 0.000000 0.000000
vt 0.258580 0.614058
vt 0.000000 0.000000
vt 0.258393 0.613326
vt 0.000000 0.000000
vt 0.258222 0.612594
vt 0.000000 0.000000
vt 0.258069 0.611867
vt 0.000000 0.000000
vt 0.257934 0.611150
vt 0.000000 0.000000
vt 0.257819 0.610446
vt 0.000000 0.000000
vt 0.257723 0.609760
vt 0.000000 0.000000
vt 0.257648 0.609097
vt 0.000000 0.000000
vt 0.257595 0.608461
vt 0.000000 0.000000
vt 0.257562 0.607855
vt 0.742448 0.607282
vt 0.000000 0.000000
vt 0.738936 0.620446
vt 0.000000 0.000000
vt 0.742438 0.607854
vt 0.000000 0.000000
vt 0.742405 0.608461
vt 0.000000 0.000000
vt 0.742351 0.609097
vt 0.000000 0.000000
vt 0.742277 0.609760
vt 0.000000 0.000000
vt 0.742181 0.610446
vt 0.000000 0.000000
vt 0.742066 0.611150
vt 0.000000 0.000000
vt 0.741931 0.611867
vt 0.000000 0.000000
vt 0.741778 0.612594
vt 0.000000 0.000000
vt 0.741607 0.613326
vt 0.000000 0.000000
vt 0.741420 0.614058
vt 0.000000 0.000000
vt 0.741217 0.614787
vt 0.000000 0.000000
vt 0.741001 0.615506
vt 0.000000 0.000000
vt 0.740771 0.616213
vt 0.000000 0.000000
vt 0.740531 0.616902
vt 0.000000 0.000000
vt 0.740280 0.617570
vt 0.000000 0.000000
vt 0.740021 0.618212
vt 0.000000 0.000000
vt 0.739756 0.618824
vt 0.000000 0.000000
vt 0.739485 0.619403
vt 0.000000 0.000000
vt 0.739211 0.619944
vt 0.000000 0.000000
vt 0.000000 0.000000
vt 0.250616 0.635957
vt 0.000000 0.000000
vt 0.263527 0.639496
vt 0.000000 0.000000
vt 0.251178 0.635971
vt 0.000000 0.000000
vt 0.251773 0.636007
vt 0.000000 0.000000
vt 0.252398 0.636064
vt 0.000000 0.000000
vt 0.253049 0.636142
vt 0.000000 0.000000
vt 0.253722 0.636241
vt 0.000000 0.000000
vt 0.254413 0.636359
vt 0.000000 0.000000
vt 0.255117 0.636496
vt 0.000000 0.000000
vt 0.255830 0.636652
vt 0.000000 0.000000
vt 0.256548 0.636824
vt 0.000000 0.000000
vt 0.257267 0.637013
vt 0.000000 0.000000
vt 0.257981 0.637217
vt 0.000000 0.000000
vt 0.258687 0.637435
vt 0.000000 0.000000
vt 0.259380 0.637665
vt 0.000000 0.000000
vt 0.260056 0.637906
vt 0.000000 0.000000
vt 0.260710 0.638156
vt 0.000000 0.000000
vt 0.261339 0.638415
vt 0.000000 0.000000
vt 0.261939 0.638680
vt 0.000000 0.000000
vt 0.262506 0.638949
vt 0.000000 0.000000
vt 0.263037 0.639222
vt 0.736473 0.639496
vt 0.000000 0.000000
vt 0.749385 0.635953
vt 0.000000 0.000000
vt 0.736964 0.639222
vt 0.000000 0.000000
vt 0.737494 0.638949
vt 0.000000 0.000000
vt 0.738061 0.638679
vt 0.000000 0.000000
vt 0.738661 0.638415
vt 0.000000 0.000000
vt 0.739290 0.638156
vt 0.000000 0.000000
vt 0.739945 0.637905
vt 0.000000 0.000000
vt 0.740620 0.637664
vt 0.000000 0.000000
vt 0.741313 0.637434
vt 0.000000 0.000000
vt 0.742019 0.637216
vt 0.000000 0.000000
vt 0.742733 0.637012
vt 0.000000 0.000000
vt 0.743452 0.636823
vt 0.000000 0.000000
vt 0.744170 0.636650
vt 0.000000 0.000000
vt 0.744883 0.636494
vt 0.000000 0.000000
vt 0.745587 0.636357
vt 0.000000 0.000000
vt 0.746278 0.636238
vt 0.000000 0.000000
vt 0.746951 0.636140
vt 0.000000 0.000000
vt 0.747602 0.636061
vt 0.000000 0.000000
vt 0.748227 0.636004
vt 0.000000 0.000000
vt 0.748823 0.635967
vt 0.000000 0.000000
s 0
f 1/1/1 2/4/1 4/9/1 3/7/1
f 3/7/2 4/9/2 8/14/2 7/13/2
f 7/13/3 8/14/3 6/12/3 5/11/3
f 5/11/4 6/12/4 2/5/4 1/2/4
f 15/27/5 76/149/5 96/190/5 24/46/5
f 25/47/6 22/41/6 23/43/6 4/10/6 2/6/6 26/49/6 21/39/6 54/105/6 56/109/6 57/111/6 58/113/6 59/115/6 60/117/6 61/119/6 62/121/6 63/123/6 64/125/6 65/127/6 66/129/6 67/131/6 68/133/6 69/135/6 70/137/6 71/139/6 72/141/6 73/143/6 74/145/6 55/107/6
f 10/18/7 17/31/7 22/42/7 25/48/7
f 22/42/3 17/31/3 9/15/3 23/44/3
f 18/33/8 19/35/8 26/50/8 27/51/8
f 20/37/9 18/33/9 27/51/9 28/53/9
f 17/32/10 10/17/10 33/63/10 35/67/10 36/69/10 37/71/10 38/73/10 39/75/10 40/77/10 41/79/10 42/81/10 43/83/10 44/85/10 45/87/10 46/89/10 47/91/10 48/93/10 49/95/10 50/97/10 51/99/10 52/101/10 53/103/10 34/65/10 16/29/10 19/36/10 1/3/10 3/8/10 9/16/10
f 117/231/11 20/37/11 28/53/11 139/276/11
f 29/56/12 11/19/12 14/25/12 31/59/12
f 31/59/13 14/25/13 12/21/13 30/58/13
f 96/189/6 98/193/6 99/195/6 100/197/6 101/199/6 102/201/6 103/203/6 104/205/6 105/207/6 106/209/6 107/211/6 108/213/6 109/215/6 110/217/6 111/219/6 112/221/6 113/223/6 114/225/6 115/227/6 116/229/6 97/191/6 29/55/6 31/60/6 30/57/6 32/61/6 138/273/6 140/277/6 141/279/6 142/281/6 143/283/6 144/285/6 145/287/6 146/289/6 147/291/6 148/293/6 149/295/6 150/297/6 151/299/6 152/301/6 153/303/6 154/305/6 155/307/6 156/309/6 157/311/6 158/313/6 139/275/6 28/54/6 27/52/6 26/49/6 2/6/6 6/12/6 8/14/6 4/10/6 23/43/6 24/45/6
f 13/23/14 118/233/14 138/274/14 32/62/14
f 21/40/15 16/30/15 34/66/15 54/106/15
f 12/21/16 13/23/16 32/62/16 30/58/16
f 23/44/4 9/15/4 15/27/4 24/46/4
f 26/50/17 19/35/17 16/30/17 21/40/17
f 33/64/18 55/108/18 74/146/18 35/68/18
f 35/68/19 74/146/19 73/144/19 36/70/19
f 36/70/20 73/144/20 72/142/20 37/72/20
f 37/72/21 72/142/21 71/140/21 38/74/21
f 38/74/22 71/140/22 70/138/22 39/76/22
f 39/76/23 70/138/23 69/136/23 40/78/23
f 40/78/24 69/136/24 68/134/24 41/80/24
f 41/80/25 68/134/25 67/132/25 42/82/25
f 42/82/26 67/132/26 66/130/26 43/84/26
f 43/84/27 66/130/27 65/128/27 44/86/27
f 44/86/28 65/128/28 64/126/28 45/88/28
f 45/88/29 64/126/29 63/124/29 46/90/29
f 46/90/30 63/124/30 62/122/30 47/92/30
f 47/92/31 62/122/31 61/120/31 48/94/31
f 48/94/32 61/120/32 60/118/32 49/96/32
f 49/96/33 60/118/33 59/116/33 50/98/33
f 50/98/34 59/116/34 58/114/34 51/100/34
f 51/100/35 58/114/35 57/112/35 52/102/35
f 52/102/36 57/112/36 56/110/36 53/104/36
f 53/104/37 56/110/37 54/106/37 34/66/37
f 55/108/38 33/64/38 10/18/38 25/48/38
f 75/147/39 97/192/39 116/230/39 77/151/39
f 77/151/40 116/230/40 115/228/40 78/153/40
f 78/153/41 115/228/41 114/226/41 79/155/41
f 79/155/42 114/226/42 113/224/42 80/157/42
f 80/157/43 113/224/43 112/222/43 81/159/43
f 81/159/44 112/222/44 111/220/44 82/161/44
f 82/161/45 111/220/45 110/218/45 83/163/45
f 83/163/46 110/218/46 109/216/46 84/165/46
f 84/165/47 109/216/47 108/214/47 85/167/47
f 85/167/48 108/214/48 107/212/48 86/169/48
f 86/169/49 107/212/49 106/210/49 87/171/49
f 87/171/50 106/210/50 105/208/50 88/173/50
f 88/173/51 105/208/51 104/206/51 89/175/51
f 89/175/52 104/206/52 103/204/52 90/177/52
f 90/177/53 103/204/53 102/202/53 91/179/53
f 91/179/54 102/202/54 101/200/54 92/181/54
f 92/181/55 101/200/55 100/198/55 93/183/55
f 93/183/56 100/198/56 99/196/56 94/185/56
f 94/185/57 99/196/57 98/194/57 95/187/57
f 95/187/58 98/194/58 96/190/58 76/149/58
f 75/147/59 11/19/59 29/56/59 97/192/59
f 117/231/60 139/276/60 158/314/60 119/235/60
f 119/235/61 158/314/61 157/312/61 120/237/61
f 120/237/62 157/312/62 156/310/62 121/239/62
f 121/239/63 156/310/63 155/308/63 122/241/63
f 122/241/64 155/308/64 154/306/64 123/243/64
f 123/243/65 154/306/65 153/304/65 124/245/65
f 124/245/66 153/304/66 152/302/66 125/247/66
f 125/247/67 152/302/67 151/300/67 126/249/67
f 126/249/68 151/300/68 150/298/68 127/251/68
f 127/251/69 150/298/69 149/296/69 128/253/69
f 128/253/70 149/296/70 148/294/70 129/255/70
f 129/255/71 148/294/71 147/292/71 130/257/71
f 130/257/72 147/292/72 146/290/72 131/259/72
f 131/259/73 146/290/73 145/288/73 132/261/73
f 132/261/74 145/288/74 144/286/74 133/263/74
f 133/263/75 144/286/75 143/284/75 134/265/75
f 134/265/76 143/284/76 142/282/76 135/267/76
f 135/267/77 142/282/77 141/280/77 136/269/77
f 136/269/78 141/280/78 140/278/78 137/271/78
f 137/271/79 140/278/79 138/274/79 118/233/79
f 75/148/10 77/152/10 78/154/10 79/156/10 80/158/10 81/160/10 82/162/10 83/164/10 84/166/10 85/168/10 86/170/10 87/172/10 88/174/10 89/176/10 90/178/10 91/180/10 92/182/10 93/184/10 94/186/10 95/188/10 76/150/10 15/28/10 9/16/10 3/8/10 7/13/10 5/11/10 1/3/10 19/36/10 18/34/10 20/38/10 117/232/10 119/236/10 120/238/10 121/240/10 122/242/10 123/244/10 124/246/10 125/248/10 126/250/10 127/252/10 128/254/10 129/256/10 130/258/10 131/260/10 132/262/10 133/264/10 134/266/10 135/268/10 136/270/10 137/272/10 118/234/10 13/24/10 12/22/10 14/26/10 11/20/10
